<?xml version="1.0" encoding="utf-8"?>
<svg viewBox="-26.142 81.9262 722.07 165.0238" width="722.07" height="165.024" xmlns="http://www.w3.org/2000/svg">
  <path d="M 62.558 161.13 L 48.558 149.61 C 48.063 149.194 47.303 149.47 47.19 150.106 C 47.18 150.164 47.176 150.222 47.178 150.28 L 47.358 155.93 C 47.417 157.704 48.639 159.227 50.358 159.67 L 61.838 162.59 C 62.471 162.724 63.011 162.122 62.81 161.508 C 62.762 161.361 62.675 161.23 62.558 161.13 Z" style="fill: rgb(255, 255, 255);" transform="matrix(0.9999999999999999, 0, 0, 0.9999999999999999, 0, -7.105427357601002e-15)"/>
  <path d="M 14.248 164.94 L 28.648 164.94 L 25.978 163.12 C 23.989 161.769 22.672 159.633 22.358 157.25 C 21.939 153.996 23.415 150.789 26.158 148.99 L 26.238 148.94 L 84.868 107.78 C 90.093 104.451 97.011 107.644 97.868 113.78 L 103.238 153.78 C 103.61 156.571 102.581 159.366 100.488 161.25 L 100.418 161.31 L 96.418 164.88 L 110.518 164.88 C 112.83 161.171 113.788 156.775 113.228 152.44 L 107.858 112.44 C 106.806 104.506 100.789 98.139 92.928 96.64 C 89.238 95.42 60.048 86.48 47.178 82.55 L 46.928 82.49 C 39.056 80.263 30.868 84.832 28.628 92.7 L 28.628 92.83 L 12.868 151.28 C 12.212 153.658 12.042 156.144 12.368 158.59 C 12.667 160.79 13.301 162.931 14.248 164.94 Z" style="fill: rgb(255, 255, 255);" transform="matrix(0.9999999999999999, 0, 0, 0.9999999999999999, 0, -7.105427357601002e-15)"/>
  <path d="M -9.592 230.42 L -1.322 229.42 L 9.998 175.65 L 1.698 175.65 C -1.544 175.563 -4.597 177.169 -6.362 179.89 L -22.432 207.22 C -23.888 209.654 -23.655 212.741 -21.852 214.93 L -9.592 230.42 Z" style="fill: rgb(255, 255, 255);" transform="matrix(0.9999999999999999, 0, 0, 0.9999999999999999, 0, -7.105427357601002e-15)"/>
  <path class="cls-1" d="M 18.178 172.79 L 4.748 236.63 L -22.692 239.82 L -26.142 246.01 L 130.538 246.01 L 146.008 172.8 L 18.178 172.79 Z M 88.818 218.79 L 81.358 224.98 L 73.938 215.56 L 62.518 224.98 L 57.658 218.82 L 69.078 209.42 L 61.658 200 L 69.128 193.84 L 76.548 203.26 L 87.968 193.84 L 92.818 200 L 81.358 209.42 L 88.818 218.79 Z" style="fill: rgb(255, 0, 231);" transform="matrix(0.9999999999999999, 0, 0, 0.9999999999999999, 0, -7.105427357601002e-15)"/>
  <path d="M 273.158 117.76 L 273.158 142.76 L 220.908 142.76 L 220.908 169.76 L 260.008 169.76 L 260.008 194.06 L 220.908 194.06 L 220.908 245.94 L 189.668 245.94 L 189.668 117.76 L 273.158 117.76 Z" style="fill: rgb(255, 255, 255);" transform="matrix(0.9999999999999999, 0, 0, 0.9999999999999999, 0, -7.105427357601002e-15)"/>
  <path d="M 377.658 125.8 C 387.493 130.9 395.643 138.734 401.128 148.36 C 406.668 158.04 409.438 169.213 409.438 181.88 C 409.438 194.427 406.668 205.57 401.128 215.31 C 395.646 224.995 387.453 232.867 377.558 237.96 C 367.385 243.293 355.601 245.96 342.208 245.96 L 294.208 245.96 L 294.208 117.76 L 342.208 117.76 C 355.728 117.76 367.545 120.44 377.658 125.8 Z M 367.788 209.29 C 374.361 202.837 377.651 193.703 377.658 181.89 C 377.665 170.077 374.375 160.88 367.788 154.3 C 361.208 147.713 352.011 144.42 340.198 144.42 L 325.358 144.42 L 325.358 218.96 L 340.158 218.96 C 351.998 218.967 361.208 215.74 367.788 209.28 L 367.788 209.29 Z" style="fill: rgb(255, 255, 255);" transform="matrix(0.9999999999999999, 0, 0, 0.9999999999999999, 0, -7.105427357601002e-15)"/>
  <path d="M 439.038 147.81 C 444.339 138.068 452.289 130.025 461.968 124.61 C 471.768 119.07 482.881 116.3 495.308 116.3 C 510.528 116.3 523.561 120.32 534.408 128.36 C 545.255 136.4 552.501 147.36 556.148 161.24 L 521.798 161.24 C 519.486 156.161 515.698 151.896 510.928 149 C 506.082 146.157 500.546 144.703 494.928 144.8 C 485.308 144.8 477.515 148.133 471.548 154.8 C 465.581 161.467 462.581 170.42 462.548 181.66 C 462.548 192.867 465.548 201.82 471.548 208.52 C 477.548 215.22 485.341 218.553 494.928 218.52 C 500.546 218.618 506.082 217.165 510.928 214.32 C 515.7 211.426 519.488 207.16 521.798 202.08 L 556.148 202.08 C 552.488 216.02 545.225 226.977 534.358 234.95 C 523.491 242.923 510.458 246.923 495.258 246.95 C 482.831 246.95 471.718 244.18 461.918 238.64 C 452.256 233.243 444.309 225.234 438.988 215.53 C 433.508 205.663 430.768 194.397 430.768 181.73 C 430.768 169.063 433.525 157.757 439.038 147.81 Z" style="fill: rgb(255, 255, 255);" transform="matrix(0.9999999999999999, 0, 0, 0.9999999999999999, 0, -7.105427357601002e-15)"/>
  <path d="M 655.158 223.35 L 607.288 223.35 L 599.618 246 L 566.918 246 L 613.358 117.76 L 649.528 117.76 L 695.928 246.01 L 662.828 246.01 L 655.158 223.35 Z M 647.158 199.24 L 631.268 152.24 L 615.558 199.24 L 647.158 199.24 Z" style="fill: rgb(255, 255, 255);" transform="matrix(0.9999999999999999, 0, 0, 0.9999999999999999, 0, -7.105427357601002e-15)"/>
</svg>